# xmcd
#
# Track frame offsets: 
#        150
#        14296
#        26963
#        39713
#        52322
#        65006
#        78270
#        90861
#        104740
#        117054
#        130727
#        143879
#        155541
#        168689
#        181143
#        193968
#        206151
#        218901
#        232057
#        245042
#        256795
#        270382
#        284956
#        297172
#        310921
#
# Disc length: 4328 seconds
#
# Revision: 0
# Processed by: cddbd v1.5.2PL0 Copyright (c) Steve Scherf et al.
# Submitted via: ExactAudioCopyFreeDBPlugin 1.0
#
DISCID=8710e619
DTITLE=Lucille Hegamin - Complete Recorded Works Vol. 3 (1923-1932)
DYEAR=1995
DGENRE=Blues
TTITLE0=Chattanooga Man
TTITLE1=Rampart St. Blues
TTITLE2=Reckless Daddy
TTITLE3=Always Be Careful Mamma
TTITLE4=If You Don't Give Me What I Want (I'm Gonna Get It Somewhere E
TTITLE4=lse)
TTITLE5=You May Be Fast "but" Mamma's Gonna Slow You Down
TTITLE6=Mamma's the Boss
TTITLE7=If You'll Come Back
TTITLE8=I Threw a Good Man Over for You
TTITLE9=Sweet Temptation Man
TTITLE10=Hard Hearted Hannah
TTITLE11=Easy Goin' Mamma
TTITLE12=Alabamy Bound
TTITLE13=Hot Tamale Molly
TTITLE14=Every Time I Pick a Sweetie
TTITLE15=My Sugar
TTITLE16=I Had Someone Else Before I Had You (And I'll Have Someone Af
TTITLE16=ter You've Gone)
TTITLE17=No Man's Mama
TTITLE18=Dinah
TTITLE19=Poor Papa (He's Got Nuthin' at All)
TTITLE20=Here Comes Malinda
TTITLE21=Nobody but My Baby Is Gettin' My Love
TTITLE22=Senorita Mine
TTITLE23=Shake Your Cans
TTITLE24=Totem Pole
EXTD=
EXTT0=
EXTT1=
EXTT2=
EXTT3=
EXTT4=
EXTT5=
EXTT6=
EXTT7=
EXTT8=
EXTT9=
EXTT10=
EXTT11=
EXTT12=
EXTT13=
EXTT14=
EXTT15=
EXTT16=
EXTT17=
EXTT18=
EXTT19=
EXTT20=
EXTT21=
EXTT22=
EXTT23=
EXTT24=
PLAYORDER=
